<svg width="30" height="30" viewBox="0 0 30 30" fill="none" xmlns="http://www.w3.org/2000/svg">
<rect width="30.0005" height="29.9999" rx="10" fill="#DAD7B9"/>
<path d="M14.4754 6.04883H7.10563C6.54719 6.04883 6.01161 6.27067 5.61673 6.66556C5.22184 7.06045 5 7.59603 5 8.15449V22.8941C5 23.4526 5.22184 23.9882 5.61673 24.383C6.01161 24.7779 6.54719 24.9998 7.10563 24.9998H21.8451C22.4035 24.9998 22.9391 24.7779 23.334 24.383C23.7289 23.9882 23.9507 23.4526 23.9507 22.8941V15.5243" stroke="white" stroke-width="3" stroke-linecap="round" stroke-linejoin="round"/>
<path d="M21.1879 5.65414C21.6068 5.2353 22.1748 5 22.7672 5C23.3595 5 23.9275 5.2353 24.3464 5.65414C24.7652 6.07299 25.0005 6.64106 25.0005 7.23339C25.0005 7.82572 24.7652 8.39379 24.3464 8.81264L14.8573 18.3028C14.6074 18.5526 14.2985 18.7355 13.9593 18.8345L10.9345 19.7189C10.844 19.7453 10.7479 19.7469 10.6565 19.7235C10.5651 19.7001 10.4817 19.6525 10.4149 19.5858C10.3482 19.5191 10.3006 19.4356 10.2772 19.3442C10.2538 19.2528 10.2554 19.1567 10.2818 19.0662L11.1662 16.0414C11.2657 15.7024 11.4489 15.3939 11.6989 15.1444L21.1879 5.65414Z" stroke="white" stroke-width="3" stroke-linecap="round" stroke-linejoin="round"/>
</svg>
