<svg width="36" height="36" viewBox="0 0 36 36" fill="none" xmlns="http://www.w3.org/2000/svg">
<path d="M29.3193 26.931C29.6363 27.248 29.8144 27.678 29.8144 28.1263C29.8144 28.5746 29.6363 29.0046 29.3193 29.3216C29.0023 29.6386 28.5723 29.8167 28.124 29.8167C27.6757 29.8167 27.2457 29.6386 26.9287 29.3216L18.0004 20.3905L9.06933 29.3188C8.75232 29.6358 8.32235 29.8139 7.87402 29.8139C7.42569 29.8139 6.99573 29.6358 6.67871 29.3188C6.36169 29.0018 6.18359 28.5718 6.18359 28.1235C6.18359 27.6751 6.36169 27.2452 6.67871 26.9282L15.6098 17.9999L6.68152 9.06879C6.3645 8.75177 6.18641 8.3218 6.18641 7.87347C6.18641 7.42514 6.3645 6.99518 6.68152 6.67816C6.99854 6.36114 7.4285 6.18305 7.87683 6.18305C8.32516 6.18305 8.75513 6.36114 9.07215 6.67816L18.0004 15.6093L26.9315 6.67675C27.2485 6.35974 27.6785 6.18164 28.1268 6.18164C28.5752 6.18164 29.0051 6.35974 29.3221 6.67675C29.6392 6.99377 29.8173 7.42374 29.8173 7.87207C29.8173 8.3204 29.6392 8.75036 29.3221 9.06738L20.3911 17.9999L29.3193 26.931Z" fill="#626146"/>
</svg>
